
        <svg xmlns="http://www.w3.org/2000/svg" xmlns:xlink="http://www.w3.org/1999/xlink" version="1.1" width="3333.3333333333335" 
        height="3100.0000000000005" viewBox="0 0 3333.3333333333335 3100.0000000000005">
			
			<g transform="scale(16.666666666666668) translate(10, 10)">
				<defs id="SvgjsDefs4570"><linearGradient id="SvgjsLinearGradient4577"><stop id="SvgjsStop4578" stop-color="#00ff8f" offset="0"></stop><stop id="SvgjsStop4579" stop-color="#00a1ff" offset="1"></stop></linearGradient></defs><g id="SvgjsG4571" featureKey="tOsHRK-0" transform="matrix(2.025288116672863,0,0,2.025288116672863,-5.523604351101927,-28.125317243168986)" fill="url(#SvgjsLinearGradient4577)"><path xmlns="http://www.w3.org/2000/svg" fill="url(#SvgjsLinearGradient4577)" d="M91.6,52.244c-0.26-3.377-0.854-6.562-2.31-9.623c-1.003-2.109-2.285-3.911-3.739-5.73  c-0.575-0.719-1.352-1.497-2.077-2.059c-0.496-0.385-0.992-0.769-1.489-1.154c-0.489-0.379-0.624-0.678-0.908-1.248  c-1.582-3.166-4.419-5.931-7.731-7.261c-4.666-1.873-9.807-1.703-14.176,0.927c-2.496-6.541-9.473-11.284-16.249-12.063  c-3.487-0.401-6.999,0.017-10.269,1.346c-3.873,1.574-6.924,4.271-9.347,7.615c-0.602,0.83-1.113,1.804-1.545,2.731  c-0.12,0.258-0.223,0.526-0.333,0.788c-0.147,0.348-1.093,0.403-1.452,0.504c-1.491,0.422-2.941,0.969-4.316,1.687  c-5.193,2.713-9.317,7.198-11.401,12.696c-3.002,7.922-1.498,16.83,3.719,23.417c4.608,6.069,11.65,10.217,19.297,10.734  c7.688,0.52,15.371-2.884,19.671-9.367c4.765,8.776,16.279,12.803,25.754,10.394c8.348-2.123,15.316-8.322,17.833-16.655  C91.28,57.441,91.644,54.838,91.6,52.244z M88.398,52.456c-0.272,3.543-0.973,7.148-2.901,10.205  c-2.27,3.597-5.29,6.619-9.171,8.444c-3.623,1.703-7.774,2.438-11.762,1.899c-5.376-0.726-10.254-3.562-13.894-7.547  c-0.624-0.683-1.234-1.373-1.811-2.097c-0.37-0.463,0.288-1.398,0.49-1.945c0.295-0.798,0.545-1.611,0.747-2.438  c0.738-3.021,0.803-6.195,0.146-9.237c-1.223-5.663-5.141-10.458-10.534-12.633c-5.342-2.154-11.631-1.544-15.988,2.388  c-4.309,3.89-6.008,10.373-3.177,15.643c1.981,3.795,6.319,6.195,10.597,5.5c-5.802-0.022-10.139-5.27-9.428-10.937  c0.718-5.723,5.186-10.366,11.102-10.342c5.614,0.022,10.651,3.689,12.668,8.874c1.86,4.779,1.179,10.578-1.674,14.804  c-2.142,3.172-5.897,5.848-9.444,7.114c-2.825,1.009-5.709,1.638-8.714,1.254c-2.637-0.337-5.203-1.22-7.526-2.506  c-4.86-2.69-8.661-7.205-10.571-12.413c-1.102-3.003-1.592-5.957-1.07-9.129c0.479-2.906,1.511-5.791,3.073-8.292  c2.682-4.295,5.877-8.258,10.935-9.762c2.331-0.693,4.62-0.646,6.977-0.215c-1.454-0.526-2.964-0.986-4.523-1.036  c0.818-1.927,1.74-3.77,3.102-5.38c3.215-3.799,7.562-6.14,12.508-6.707c3.997-0.458,8.197,0.805,11.434,3.155  c2.221,1.612,4.062,3.607,5.409,6.007c0.658,1.172,1.051,2.443,1.763,3.587c0.606,0.974,1.19,1.982,1.885,2.897  c0.007,0.009,0.014,0.018,0.021,0.026c0.381-1.121,0.499-2.253,0.468-3.429c0.135-0.223,0.72-0.431,0.946-0.566  c0.571-0.342,1.166-0.574,1.777-0.833c1.474-0.624,3.392-1.07,4.993-0.942c4.324,0.345,8.397,1.961,10.944,5.673  c-3.369-1.819-7.854-3.064-11.61-1.863c1.612,0.69,3.409,0.944,5.088,1.432c2.271,0.661,4.349,1.503,6.396,2.701  c2.936,1.718,5.73,4.178,7.395,7.186C87.417,44.533,88.492,48.38,88.398,52.456z"></path></g><g id="SvgjsG4572" featureKey="nameLeftFeature-0" transform="matrix(1.3274286392665906,0,0,1.3274286392665906,22.65018995348675,139.45075120559173)" fill="#ffffff"><path d="M5.8134 6.441000000000001 c4.6271 0 6.9153 3.4239 6.9153 6.6949 c0 3.4576 -2.3051 6.8642 -6.8644 6.8642 l-4.6271 0 c-0.15254 0 -0.22034 -0.08458 -0.22034 -0.22017 l0 -13.119 c0 -0.15254 0.067797 -0.22034 0.22034 -0.22034 l4.5763 0 z M5.932 18.7122 c3.5422 0 5.4576 -2.7798 5.4407 -5.5764 c0 -2.7797 -1.8644 -5.4066 -5.4407 -5.4066 l-3.5932 0 l0.016949 10.983 l3.5763 0 z M16.101716949152543 6.441000000000001 l-0.86441 0 c-0.15254 0 -0.22034 0.067797 -0.22034 0.22034 l0 13.119 c0 0.13559 0.067797 0.22017 0.22034 0.22017 l0.88136 0 c0.11864 0 0.20339 -0.08458 0.20339 -0.22017 l0 -13.119 c0 -0.15254 -0.084746 -0.22034 -0.22034 -0.22034 z M26.932166101694914 18.712 c0.13559 0 0.20339 0.084912 0.20339 0.23729 l0 0.83051 c0 0.15254 -0.067797 0.22017 -0.20339 0.22017 l-7.9492 0 c-0.15254 0 -0.20339 -0.10153 -0.20339 -0.22017 l0 -13.119 c0 -0.15254 0.067797 -0.22034 0.22034 -0.22034 l0.89831 0 c0.13559 0 0.22034 0.067797 0.22034 0.22034 l0 12.051 l6.8136 0 z M30.508496610169487 6.441000000000001 l-0.86441 0 c-0.15254 0 -0.22034 0.067797 -0.22034 0.22034 l0 13.119 c0 0.13559 0.067797 0.22017 0.22034 0.22017 l0.88136 0 c0.11864 0 0.20339 -0.08458 0.20339 -0.22017 l0 -13.119 c0 -0.15254 -0.084746 -0.22034 -0.22034 -0.22034 z"></path></g><g id="SvgjsG4573" featureKey="nameRightFeature-0" transform="matrix(1.304665356128196,0,0,1.304665356128196,71.0052134445238,139.7517220604076)" fill="#ffffff"><path d="M12.661 17.4578 c0.16949 0.13559 0.16933 0.30508 0.016784 0.45763 c-1.2542 1.3729 -3.0339 2.2032 -5.0678 2.2032 c-3.7288 0 -6.8475 -2.9998 -6.8475 -6.8642 c0 -3.8475 3.1186 -6.9322 6.8475 -6.9322 c2.0508 0 3.8475 0.84746 5.1186 2.2373 c0.15254 0.15254 0.13559 0.32203 -0.016949 0.45763 l-1.4068 1.1356 c-0.16966 0.13559 -0.32203 0.11864 -0.45763 -0.033898 c-0.72881 -0.76271 -1.8644 -1.4575 -3.2203 -1.4575 c-2.4915 0 -4.4405 2.1524 -4.4405 4.5931 c0 2.4746 1.949 4.5254 4.4405 4.5254 c1.339 0 2.4576 -0.66102 3.1695 -1.4068 c0.15254 -0.15254 0.30508 -0.16949 0.47458 -0.050847 z M22.983069491525423 17.6612 c0.18644 0 0.32203 0.13592 0.32203 0.33915 l0 1.678 c0 0.16949 -0.13559 0.32186 -0.32203 0.32186 l-8.0169 0 c-0.16949 0 -0.25424 -0.13543 -0.25424 -0.30508 l0 -12.932 c0 -0.16949 0.13559 -0.32203 0.32203 -0.32203 l1.7627 0 c0.18644 0 0.33898 0.15254 0.33898 0.32203 l0 10.898 l5.8475 0 z M31.49137288135593 20.11864 c3.7966 0 6.8983 -3.0507 6.8983 -6.9151 c0 -3.8305 -3.1017 -6.8814 -6.8983 -6.8814 c-3.8305 0 -6.9322 3.0508 -6.9322 6.8814 c0 3.8644 3.1017 6.9151 6.9322 6.9151 z M31.49137288135593 17.7798 c-2.4407 0 -4.5085 -2.1017 -4.5085 -4.5763 c0 -2.4576 2.0678 -4.5422 4.5085 -4.5422 s4.4915 2.0846 4.4915 4.5422 c0 2.4746 -2.0508 4.5763 -4.4915 4.5763 z M50.98277966101695 6.4239999999999995 l-1.7798 0 c-0.18644 0 -0.32203 0.11864 -0.32203 0.33898 l0 8.2203 c0 1.7458 -1.1186 2.7966 -2.9661 2.7966 c-1.8305 0 -2.8983 -1.0508 -2.8983 -2.7966 l0 -8.2203 c0 -0.20339 -0.13559 -0.33898 -0.32203 -0.33898 l-1.7458 0 c-0.20339 0 -0.35576 0.13559 -0.35576 0.33898 l0 8.3051 c0 2.8814 1.9661 5.0507 5.322 5.0507 c3.3729 0 5.3898 -2.1693 5.3898 -5.0507 l0 -8.3051 c0 -0.22034 -0.13559 -0.33898 -0.32203 -0.33898 z M58.32182542372882 6.441000000000001 c4.4068 0 6.9661 3.5424 6.9661 6.7288 c0 3.6102 -2.5763 6.8303 -6.9661 6.8303 l-4.4746 0 c-0.18644 0 -0.33898 -0.15238 -0.33898 -0.33881 l0 -12.898 c0 -0.16949 0.13559 -0.32203 0.32203 -0.32203 l4.4915 0 z M58.32182542372882 17.6612 c2.7966 0 4.4746 -2.1866 4.4576 -4.5086 c0 -2.288 -1.5932 -4.3727 -4.4576 -4.3727 l-2.4068 0 l0.016949 8.8814 l2.3898 0 z"></path></g>
			</g>
		</svg>
	