<?xml version="1.0" encoding="utf-8"?>
<!-- Generator: Adobe Illustrator 25.2.1, SVG Export Plug-In . SVG Version: 6.00 Build 0)  -->
<svg version="1.1" id="图层_1" xmlns="http://www.w3.org/2000/svg" xmlns:xlink="http://www.w3.org/1999/xlink" x="0px" y="0px"
	 viewBox="0 0 606.9 606.9" style="enable-background:new 0 0 606.9 606.9;" xml:space="preserve">
<style type="text/css">
	.st0{opacity:0.4;}
	.st1{fill:#FFFFFF;}
	.st2{enable-background:new    ;}
</style>
<g>
	<g id="图层_1_1_">
		<g class="st0">
			<polygon points="585.2,507.8 585.2,571.2 35.7,571.2 35.7,21.7 35.7,21.7 35.7,0 14,0 14,408 14,592.9 199,592.9 606.9,592.9 
				606.9,507.8 			"/>
		</g>
		<polygon points="571.2,521.8 571.2,585.2 21.7,585.2 21.7,35.7 21.7,35.7 21.7,14 0,14 0,422 0,606.9 185,606.9 592.9,606.9 
			592.9,521.8 		"/>
		<path d="M94.4,589.5h-1.8V375.1l-71.9-147l0.1-0.4L94.4,8.5V589.5z M22.6,228l70,143.1V19.5L22.6,228z"/>
		<path d="M573.8,586.6l-2.7-0.4L354.3,552l20.5,32.8l-1.5,1l-21.4-34.2L21.5,499.5l0.3-1.8l328.9,51.9L16.4,16.9L573.8,586.6z
			 M353,549.9l215.7,34L26.9,30.1L353,549.9z"/>
		<path d="M18.9,586.5l198.3-174l-195.8-61l0.5-1.7l549.5,171.2h21.5l0.1,1.8L18.9,586.5z M219.3,413.1L24.4,584l552.2-61.3H571
			L219.3,413.1z"/>
		<rect x="211.5" y="404.6" transform="matrix(0.7071 -0.7071 0.7071 0.7071 -227.2431 275.5907)" width="15.1" height="15.1"/>
		<rect x="510.4" y="522.7" transform="matrix(0.7071 -0.7071 0.7071 0.7071 -223.2384 521.4952)" width="15.1" height="15.1"/>
		<rect x="472.9" y="485.2" transform="matrix(0.7071 -0.7071 0.7071 0.7071 -207.7245 484.0446)" width="15.1" height="15.1"/>
		<rect x="86" y="131.9" transform="matrix(0.7071 -0.7071 0.7071 0.7071 -71.1939 106.9753)" width="15.1" height="15.1"/>
		<rect x="339.1" y="540.9" transform="matrix(0.7071 -0.7071 0.7071 0.7071 -286.2713 405.7599)" width="15.1" height="15.1"/>
		<rect x="90.2" y="508.2" transform="matrix(0.7071 -0.7071 0.7071 0.7071 -336.0133 220.1648)" width="15.1" height="15.1"/>
		<rect x="86" y="12.3" transform="matrix(0.7071 -0.7071 0.7071 0.7071 13.3843 71.937)" width="15.1" height="15.1"/>
		<rect x="86" y="362.6" transform="matrix(0.7071 -0.7071 0.7071 0.7071 -234.3596 174.5543)" width="15.1" height="15.1"/>
		<g class="st0">
			<path d="M574.6,352.8c-3-8.3-7.4-16.1-13-23c-6.2-7.6-13.6-14.3-21.9-19.6c-8.6-5.7-20.5-11.8-35.6-18.3
				c-14-6-23.9-11.5-29.5-16.3c-4.5-3.9-6.7-8.2-6.7-13c0-5.7,2.4-10.1,7.5-13.9c5.7-4.2,13.5-6.3,23.2-6.3c8.9,0,15.6,1.4,19.8,4
				c4.9,3.1,10.6,8,16.9,14.5l4.6,4.8l5.2-4.1l25.4-20.4l5.5-4.4l-4.3-5.6c-9.1-11.9-21.2-21.2-35-27c-12.9-5.6-26.8-8.6-40.9-8.7
				c-20.6,0-38.4,6.5-52.9,19.2c-14.8,13-22.3,29-22.3,47.5c-0.1,7.5,1.3,14.9,4,21.9c3,7.3,7.2,14.1,12.3,20.1
				c5.6,6.7,12.3,12.5,19.7,17.2c7.3,4.6,17.6,9.7,30.8,15.1c12.3,5.1,21.3,9.5,26.8,13.3c5.1,3.6,9.5,8.2,12.8,13.5
				c3.3,5.2,4.8,10.1,4.8,15c0.2,7.8-3.1,15.4-9,20.5c-6.3,5.7-14,8.4-23.7,8.4c-20.6,0-35.7-11.3-45.9-34.5l-2.6-5.8l-6,1.7
				l-31.4,8.8l-7.6,2.1l2.8,7.4c8.4,22.3,20.7,39.4,36.6,50.7s34.5,17.1,55.2,17.1c21.6,0,40.2-7.5,55.4-22.2s23-33,23-54
				C578.9,369.8,577.5,361.1,574.6,352.8z"/>
			<polygon points="337.5,198.5 332.1,177.8 323.9,197.5 259,352.9 193.7,197.5 185.5,177.9 180.1,198.5 117.2,437.9 114.8,447 
				124.2,447 154.8,447 160.4,447 161.8,441.6 195,314.6 252.4,451.4 259.1,467.2 265.8,451.4 323,315.9 355.7,441.6 357.1,447 
				362.6,447 393.4,447 402.8,447 400.4,437.9 			"/>
		</g>
		<path d="M588.6,338.8c-3-8.3-7.4-16.1-13-23c-6.2-7.6-13.6-14.3-21.9-19.6c-8.6-5.7-20.5-11.8-35.6-18.3
			c-14-6-23.9-11.5-29.5-16.3c-4.5-3.9-6.7-8.2-6.7-13c0-5.7,2.4-10.1,7.5-13.9c5.7-4.2,13.5-6.3,23.2-6.3c8.9,0,15.6,1.4,19.8,4
			c4.9,3.1,10.6,8,16.9,14.5l4.6,4.8l5.2-4.1l25.4-20.4l5.5-4.4l-4.3-5.6c-9.1-11.9-21.2-21.2-35-27c-12.9-5.6-26.8-8.6-40.9-8.7
			c-20.6,0-38.4,6.5-52.9,19.2c-14.8,13-22.3,29-22.3,47.5c-0.1,7.5,1.3,14.9,4,21.9c3,7.3,7.2,14.1,12.3,20.1
			c5.6,6.7,12.3,12.5,19.7,17.2c7.3,4.6,17.6,9.7,30.8,15.1c12.3,5.1,21.3,9.5,26.8,13.3c5.1,3.6,9.5,8.2,12.8,13.5
			c3.3,5.2,4.8,10.1,4.8,15c0.2,7.8-3.1,15.4-9,20.5c-6.3,5.7-14,8.4-23.7,8.4c-20.6,0-35.7-11.3-45.9-34.5l-2.6-5.8l-6,1.7
			l-31.4,8.8l-7.6,2.1l2.8,7.4c8.4,22.3,20.7,39.4,36.6,50.7s34.5,17.1,55.2,17.1c21.6,0,40.2-7.5,55.4-22.2s23-33,23-54
			C592.9,355.8,591.5,347.1,588.6,338.8z"/>
		<polygon points="351.5,184.5 346.1,163.8 337.9,183.5 273,338.9 207.7,183.5 199.5,163.9 194.1,184.5 131.2,423.9 128.8,433 
			138.2,433 168.8,433 174.4,433 175.8,427.6 209,300.6 266.4,437.4 273.1,453.2 279.8,437.4 337,301.9 369.7,427.6 371.1,433 
			376.6,433 407.4,433 416.8,433 414.4,423.9 		"/>
		<polygon class="st1" points="408.1,447.2 345.2,207.8 273.8,379.1 201.8,207.8 138.9,447.2 153.6,447.2 152.7,447 203.5,254.5 
			273.5,419.8 340.4,254.4 392.6,447 391.8,447.2 		"/>
		<path d="M408.7,447.7h-20.3l3.7-1l-51.8-190.8L273.5,421l-69.9-165.1l-50.4,190.8l3.8,1h-18.7l0.1-0.6l63.2-240.7l72.1,171.6
			l71.6-171.6l0.3,1.3L408.7,447.7z M393,446.7h14.5l-62.4-237.6l-71.4,171.1l-71.9-171.1l-62.4,237.6h12.8l51.2-193.7l70,165.5
			l67-165.6L393,446.7z"/>
		<polygon class="st1" points="339.3,300.9 377.4,447.2 390.8,447.2 340.1,260.1 273.5,424.5 272.7,422.5 203.9,260 154.5,447.2 
			169.5,447.2 208.1,299.6 273.8,456 		"/>
		<path d="M273.8,457.2l-0.4-1L208.2,301l-38.3,146.6h-16l0.1-0.6l49.8-188.4l69.7,164.7l66.6-164.6l51.3,189H377l-37.8-145.4
			L273.8,457.2z M208,298.2l0.5,1.2l65.3,155.4l65.6-155.4l38.3,147.2h12.5L340,261.5l-66.4,164.2l-1.3-3L204,261.4l-49,185.3h14.1
			L208,298.2z"/>
		<path class="st1" d="M446.1,255.7c2.7,6.6,6.5,12.7,11.1,18.1c5.1,6.1,11.2,11.4,18,15.7c6.9,4.4,16.8,9.2,29.7,14.5
			s22.3,9.9,28.2,14c5.9,4.1,11,9.4,14.8,15.6c4,6.3,6,12.6,6,18.8c0.2,7.3-2.1,14.5-6.4,20.4c-1.5,2-3.2,3.8-5,5.5
			c-1,0.8-1.9,1.7-2.9,2.4c-2,1.5-4.2,2.8-6.4,3.8c-2.3,1.1-4.7,1.9-7.1,2.6c-3.9,1-8,1.5-12,1.4c-23.6,0-41.1-12.9-52.5-38.8
			l-15.1,4.2c7.8,26.4,32.2,54,67.5,52c33-1.8,49.5-15.5,55.4-45.6c6-31.2-16.9-58-61.4-71.6c-27.6-8.4-48.1-27.6-51.1-47.8
			c-1.6-11.1,1.2-27.4,24-42.6c46.3-31,86.9,20.3,87.6,21.2l12.4-9.8c-8.4-10.9-19.4-19.4-32.1-24.7c-12-5.2-25-8-38.1-8.1
			c-18.9,0-34.9,5.8-48.2,17.4c-13.2,11.6-19.8,25.6-19.8,42.1C442.6,243,443.8,249.5,446.1,255.7z"/>
		<path d="M510.4,406.6c-33.7,0-56.9-26.7-64.4-52.4l-0.1-0.4l15.9-4.5l0.2,0.4c11.3,25.6,28.8,38.5,52.1,38.5c4,0,8-0.5,11.9-1.4
			c2.4-0.6,4.8-1.5,7-2.5c2.2-1.1,4.3-2.3,6.3-3.8c1-0.7,2-1.5,2.9-2.4c1.8-1.6,3.5-3.4,4.9-5.4c4.2-5.9,6.5-12.9,6.3-20.2
			c0-6.1-2-12.4-5.9-18.6c-3.8-6.1-8.8-11.3-14.7-15.4c-5.8-4-15.3-8.8-28.1-14s-22.8-10.1-29.8-14.5c-6.8-4.3-12.9-9.6-18.1-15.8
			c-4.7-5.5-8.5-11.6-11.2-18.3l0,0c-2.4-6.2-3.6-12.8-3.6-19.5c0-16.5,6.7-30.8,20-42.4s29.6-17.5,48.5-17.5
			c13.2,0.1,26.2,2.9,38.2,8.2c12.8,5.3,23.9,13.9,32.3,24.9l0.3,0.4l-13,10.4l-0.3-0.4c-0.4-0.5-41-51.8-87-21.1
			c-22.6,15.1-25.4,31.3-23.8,42.2c3,20,23.3,39,50.8,47.4c44.7,13.7,67.7,40.6,61.7,72.1c-5.9,30.4-22.6,44.1-55.8,46
			C512.9,406.5,511.6,406.6,510.4,406.6z M447,354.3c7.9,26.1,32,53.2,67,51.2c32.7-1.8,49.2-15.3,55-45.2c6-31-16.8-57.5-61-71
			c-27.7-8.5-48.4-27.8-51.4-48.2c-1.7-11.2,1.2-27.8,24.2-43.1c44.5-29.7,84.1,16.4,87.9,20.9l11.6-9.3
			c-8.3-10.7-19.2-19-31.7-24.2c-12-5.2-24.9-8-37.9-8.1c-18.7,0-34.8,5.8-47.9,17.3s-19.7,25.5-19.7,41.8c0,6.5,1.1,13,3.5,19.1
			l0,0c2.7,6.6,6.4,12.6,11.1,18c5.1,6.1,11.2,11.4,17.9,15.6c6.9,4.4,16.9,9.2,29.6,14.5s22.3,10,28.2,14.1
			c6,4.2,11.1,9.5,14.9,15.7c4,6.3,6,12.7,6,19c0.1,7.4-2.1,14.7-6.5,20.7c-1.5,2-3.1,3.9-5,5.5c-1,0.9-2,1.7-3,2.4
			c-2,1.5-4.2,2.8-6.5,3.9c-2.3,1.1-4.7,2-7.2,2.6c-4,1-8.1,1.5-12.2,1.5c-23.5,0-41.3-13-52.8-38.7L447,354.3z"/>
		<path class="st1" d="M579.8,382.3c0.5-1,1-2,1.4-3c0.9-2,1.6-4.1,2.3-6.2c4.2-14.3,3.8-29.5-1-43.6c-2.7-7.6-6.7-14.7-11.8-20.9
			c-5.8-7.1-12.6-13.2-20.3-18.1c-8.2-5.5-19.7-11.4-34.5-17.7s-25.2-12.2-31.3-17.5c-6.1-5.3-9.2-11.5-9.2-18.4
			c0-8,3.5-14.6,10.5-19.7c7-5.1,16.2-7.6,27.5-7.6c10.3,0,18.2,1.7,23.7,5.1c5.5,3.4,11.6,8.6,18.3,15.6l12.4-9.9l-0.7,0.5
			c-0.4-0.5-40-50.9-85.2-20.8c-17.4,11.6-25.4,25.8-23.2,40.9c2.9,19.5,22.9,38.1,49.8,46.3c45.4,13.9,68.8,41.4,62.6,73.6
			c-5.9,30.7-23.5,45.2-57,47.1c-1.2,0.1-2.5,0.1-3.7,0.1c-34.3,0-58-27.2-65.7-53.4l0.9-0.3l-15.4,4.3c7.9,21.1,19.3,36.8,34,47.4
			c14.7,10.5,31.7,15.8,51,15.8c19.7,0,36.5-6.7,50.4-20.2c3.4-3.2,6.4-6.8,9.1-10.6C576.6,388.2,578.3,385.3,579.8,382.3z"/>
		<path d="M515.1,422.2c-19.3,0-36.5-5.3-51.2-15.9s-26.2-26.5-34.2-47.6l-0.2-0.5l15.9-4.5l0.2,0.9l-0.4,0.1
			c7.6,25.5,31.2,52.7,65.2,52.7c1.2,0,2.4,0,3.6-0.1c33.3-1.8,50.7-16.2,56.6-46.7c6.2-32-17.1-59.3-62.3-73.1
			c-27.1-8.3-47.2-27-50.1-46.7c-2.3-15.3,5.8-29.6,23.4-41.3c43.5-29,81.8,16.1,85.5,20.6l0.3-0.3l0.5,0.7l-12.7,10.2l-0.3-0.3
			c-6.7-6.9-12.8-12.1-18.2-15.5s-13.3-5.1-23.4-5.1c-11.1,0-20.3,2.5-27.2,7.6s-10.4,11.5-10.4,19.3c0,6.8,3,12.9,9,18.1
			s16.6,11.1,31.2,17.4s26.4,12.3,34.6,17.8c7.7,5,14.6,11.1,20.4,18.2c5.1,6.3,9.1,13.4,11.9,21c4.9,14.2,5.2,29.5,1,43.8
			c-0.7,2.1-1.4,4.2-2.3,6.3c-0.4,1-0.9,2-1.4,3c-1.5,3-3.2,6-5.2,8.7c-2.7,3.9-5.8,7.5-9.1,10.8C552,415.4,534.9,422.2,515.1,422.2
			z M430.7,358.9c7.9,20.6,19.2,36.3,33.7,46.7s31.7,15.7,50.7,15.7c19.5,0,36.4-6.8,50.1-20.1c3.3-3.2,6.4-6.8,9.1-10.6
			c1.9-2.7,3.6-5.6,5.1-8.6c0.5-1,0.9-2,1.4-3c0.9-2,1.6-4.1,2.3-6.2c4.2-14.2,3.9-29.3-0.9-43.3c-2.7-7.5-6.7-14.6-11.7-20.8
			c-5.8-7-12.6-13.1-20.2-18c-8.2-5.4-19.7-11.4-34.4-17.7s-25.3-12.3-31.5-17.6s-9.3-11.7-9.3-18.8c0-8.1,3.6-14.9,10.7-20.1
			s16.4-7.7,27.7-7.7c10.3,0,18.4,1.8,23.9,5.2s11.5,8.5,18.1,15.4l11-8.9c-3.5-4.4-41.4-49-84.3-20.4c-17.2,11.5-25.2,25.5-23,40.4
			c2.8,19.3,22.7,37.8,49.5,46c45.7,14,69.2,41.7,62.9,74.2c-6,30.9-23.7,45.5-57.5,47.4c-1.2,0.1-2.5,0.1-3.7,0.1
			c-34.4,0-58.3-27.6-66-53.3L430.7,358.9z"/>
		<g class="st2">
			<path d="M157.2,64.8h3.6v22.9h8.6v3.6h-12.2V64.8z"/>
			<path d="M173,64.8h3.6v26.5H173V64.8z"/>
			<path d="M182.2,63.7l19.6,20.1V64.8h3.6v27.7l-19.6-20v18.8h-3.6V63.7z"/>
			<path d="M210.8,64.8h3.6v10.8l11.2-10.8h5l-12.8,12.3l12.9,14.2h-4.6l-11.8-12.9v12.9h-3.6V64.8z"/>
			<path d="M267.9,63.7l7.2,27.6h-3.5l-4.4-16.9l-7.5,17.9l-7.6-18l-4.4,17h-3.5l7.2-27.6l8.3,19.7L267.9,63.7z"/>
			<path d="M278.8,64.8h3.6v26.5h-3.6V64.8z"/>
			<path d="M288,63.7l19.6,20.1V64.8h3.6v27.7l-19.6-20v18.8H288V63.7z"/>
			<path d="M316.3,64.8H331v3.6h-11.1V75H331v3.6h-11.1v9.1H331v3.6h-14.7V64.8z"/>
			<path d="M356.7,65.7v4.1c-2.9-1.4-5.5-2.1-7.9-2.1c-3.1,0-5.7,1-7.8,3c-2.1,2-3.2,4.4-3.2,7.3c0,3,1.1,5.4,3.2,7.4
				c2.2,2,4.9,3,8.1,3c2.4,0,4.9-0.7,7.5-2.2v4.1c-2.4,1.3-5,1.9-7.8,1.9c-4.1,0-7.6-1.4-10.5-4.2c-2.9-2.8-4.4-6.1-4.4-10
				c0-3.9,1.4-7.1,4.3-9.9c2.9-2.7,6.3-4.1,10.3-4.1C351.2,64,353.9,64.5,356.7,65.7z"/>
			<path d="M361.5,64.8h5.7c2.9,0,5.2,0.7,7,2.1s2.7,3.2,2.7,5.5c0,1.8-0.6,3.3-1.7,4.7c-1.2,1.4-3,2.3-5.4,2.9l7.7,11.3h-4.2
				L366,80.4h-0.8v10.9h-3.6V64.8z M365.1,68v9.2c5.3,0.1,8-1.4,8-4.6c0-1.1-0.3-2-0.9-2.8c-0.6-0.7-1.5-1.2-2.5-1.5
				C368.7,68.1,367.2,68,365.1,68z"/>
			<path d="M392.1,63.8l12.5,27.5h-3.8l-3.1-6.8h-11.2l-3,6.8h-3.8L392.1,63.8z M392.1,72l-4.2,9.4h8.5L392.1,72z"/>
			<path d="M407.7,64.8h14.7v3.6h-11.1V75h11.1v3.6h-11.1v12.7h-3.6V64.8z"/>
			<path d="M425,64.8h16.2v3.6h-6.3v22.9h-3.6V68.4H425V64.8z"/>
			<path d="M473.2,67.7l-2.9,2.3c-0.8-0.8-1.5-1.4-2.1-1.8c-0.6-0.4-1.5-0.6-2.7-0.6c-1.3,0-2.4,0.3-3.2,0.9
				c-0.8,0.6-1.2,1.3-1.2,2.3c0,0.8,0.4,1.5,1.1,2.1c0.7,0.6,1.9,1.3,3.6,2c1.7,0.7,3,1.4,4,2c0.9,0.6,1.7,1.3,2.3,2.1
				s1.1,1.6,1.4,2.4c0.3,0.8,0.4,1.7,0.4,2.7c0,2.2-0.8,4.1-2.4,5.6s-3.5,2.3-5.8,2.3c-2.2,0-4.2-0.6-5.9-1.8c-1.7-1.2-3-3-3.9-5.5
				l3.6-1c1.3,3,3.3,4.5,6.1,4.5c1.3,0,2.4-0.4,3.3-1.2c0.9-0.8,1.3-1.8,1.3-3c0-0.7-0.2-1.4-0.7-2.2s-1-1.3-1.7-1.8s-1.8-1-3.2-1.6
				c-1.5-0.6-2.6-1.2-3.4-1.7s-1.5-1.1-2.1-1.8s-1-1.4-1.3-2.1c-0.3-0.7-0.4-1.4-0.4-2.2c0-1.9,0.8-3.5,2.3-4.9c1.5-1.3,3.4-2,5.6-2
				c1.4,0,2.9,0.3,4.4,0.9S472.2,66.5,473.2,67.7z"/>
			<path d="M478,64.8h14.7v3.6h-11.1V75h11.1v3.6h-11.1v9.1h11.1v3.6H478V64.8z"/>
		</g>
		<g class="st2">
			<path d="M497.5,64.8h5.7c2.9,0,5.2,0.7,7,2.1s2.7,3.2,2.7,5.5c0,1.8-0.6,3.3-1.7,4.7c-1.2,1.4-3,2.3-5.4,2.9l7.7,11.3h-4.2
				L502,80.4h-0.8v10.9h-3.6V64.8z M501.2,68v9.2c5.3,0.1,8-1.4,8-4.6c0-1.1-0.3-2-0.9-2.8c-0.6-0.7-1.5-1.2-2.5-1.5
				C504.7,68.1,503.2,68,501.2,68z"/>
		</g>
		<g class="st2">
			<path d="M515.2,64.8h3.8l8.3,18.8l8.4-18.8h3.9l-12.3,27.3L515.2,64.8z"/>
			<path d="M542.8,64.8h14.7v3.6h-11.1V75h11.1v3.6h-11.1v9.1h11.1v3.6h-14.7V64.8z"/>
			<path d="M562.3,64.8h5.7c2.9,0,5.2,0.7,7,2.1s2.7,3.2,2.7,5.5c0,1.8-0.6,3.3-1.7,4.7c-1.2,1.4-3,2.3-5.4,2.9l7.7,11.3h-4.1
				l-7.3-10.9H566v10.9h-3.6V64.8z M566,68v9.2c5.3,0.1,8-1.4,8-4.6c0-1.1-0.3-2-0.9-2.8c-0.6-0.7-1.5-1.2-2.5-1.5
				C569.5,68.1,568,68,566,68z"/>
		</g>
		<rect x="157.2" y="102.2" width="421" height="1.8"/>
		<rect x="157.2" y="48.8" width="421" height="1.8"/>
	</g>
</g>
</svg>
